<svg width="20" height="21" viewBox="0 0 20 21" fill="none" xmlns="http://www.w3.org/2000/svg">
<path d="M4.15365 2.91589L7.39062 9.14171H15.526L18.9349 3.46754C19.0113 3.32744 19.0161 3.20047 18.9492 3.08664C18.8824 2.97281 18.7535 2.91589 18.5625 2.91589H4.15365ZM5.90104 14.1854C5.25174 14.1854 4.78385 13.9753 4.4974 13.5549C4.21094 13.1346 4.21094 12.6793 4.4974 12.1889L6.35938 9.11544L2.0625 0.814348H0.401042C0.286458 0.814348 0.190972 0.774943 0.114583 0.696136C0.0381943 0.617328 0 0.516629 0 0.394039C0 0.288962 0.0429687 0.197019 0.128906 0.118212C0.214844 0.0394039 0.315104 0 0.429688 0H2.11979C2.29167 0 2.43967 0.0394039 2.5638 0.118212C2.68793 0.197019 2.77865 0.288962 2.83594 0.394039L3.69531 2.10154H18.6198C19.1927 2.10154 19.5985 2.27667 19.8372 2.62693C20.076 2.97718 20.0521 3.37122 19.7656 3.80904L16.5859 9.11544C16.4332 9.36062 16.2231 9.56201 15.9557 9.71963C15.6884 9.87725 15.4019 9.95605 15.0964 9.95605H6.84635L5.29948 12.583C5.1849 12.7406 5.18012 12.9113 5.28516 13.0952C5.39019 13.2791 5.54774 13.3711 5.75781 13.3711H17.9896C18.1042 13.3711 18.1997 13.4148 18.276 13.5024C18.3524 13.59 18.3906 13.6863 18.3906 13.7914C18.3906 13.914 18.3524 14.0103 18.276 14.0803C18.1997 14.1504 18.0946 14.1854 17.9609 14.1854H5.90104Z" fill="#777777" stroke="#777777" stroke-width="0.8"/>
<ellipse cx="6.04165" cy="18.452" rx="1.6" ry="1.65154" fill="#777777"/>
<ellipse cx="16.7917" cy="18.452" rx="1.6" ry="1.65154" fill="#777777"/>
</svg>
