<svg width="20" height="20" viewBox="0 0 20 20" fill="none" xmlns="http://www.w3.org/2000/svg">
<g id="Group 274">
<rect id="Rectangle 176" x="5" y="5" width="9" height="10" fill="white"/>
<path id="Vector" d="M13.2152 10L8.88608 5.65823L7.86076 6.70886L11.1519 10L7.86076 13.2911L8.88608 14.3291L13.2152 10ZM20 9.99838C20 11.365 19.7362 12.6572 19.2085 13.8751C18.6809 15.0929 17.9636 16.1545 17.0566 17.0598C16.1497 17.9651 15.0884 18.6814 13.8728 19.2089C12.6573 19.7363 11.3669 20 10.0016 20C8.61814 20 7.31748 19.7362 6.09962 19.2085C4.88175 18.6809 3.82228 17.9636 2.92122 17.0566C2.02015 16.1497 1.30802 15.0884 0.78481 13.8728C0.261603 12.6573 0 11.3669 0 10.0016C0 8.61814 0.262718 7.31743 0.788152 6.09947C1.31357 4.88149 2.02665 3.82202 2.92739 2.92106C3.82812 2.0201 4.88627 1.30802 6.10185 0.784809C7.31743 0.261602 8.61627 0 9.99838 0C11.365 0 12.6572 0.261713 13.8751 0.785139C15.0929 1.30857 16.1545 2.02165 17.0598 2.92438C17.9651 3.82711 18.6814 4.88627 19.2089 6.10185C19.7363 7.31743 20 8.61627 20 9.99838Z" fill="black"/>
</g>
</svg>
