<svg width="26" height="26" viewBox="0 0 26 26" fill="none" xmlns="http://www.w3.org/2000/svg">
<path id="Vector" d="M10.9983 16.3138L7.59723 12.8857C7.42564 12.7321 7.22169 12.6532 6.9854 12.6487C6.74914 12.6443 6.54439 12.7286 6.37118 12.9019C6.19531 13.0777 6.10737 13.2831 6.10737 13.5179C6.10737 13.7527 6.19328 13.9499 6.36508 14.1096L10.2725 18.0312C10.4729 18.2539 10.714 18.3652 10.9957 18.3652C11.2774 18.3652 11.5262 18.2539 11.7422 18.0312L19.6062 10.1761C19.7705 10.0059 19.8549 9.80262 19.8593 9.56635C19.8638 9.33006 19.7794 9.11924 19.6062 8.9339C19.4208 8.77016 19.2084 8.69065 18.9688 8.69539C18.7293 8.70012 18.5292 8.78284 18.3685 8.94353L10.9983 16.3138ZM13.0032 26C11.2154 26 9.53104 25.6575 7.95011 24.9726C6.36918 24.2876 4.99088 23.3569 3.81521 22.1805C2.63956 21.0041 1.70978 19.6269 1.02585 18.049C0.34195 16.471 0 14.7891 0 13.0032C0 11.2059 0.342482 9.51535 1.02745 7.93147C1.71239 6.34756 2.64307 4.9697 3.81951 3.79789C4.99592 2.62607 6.3731 1.70015 7.95104 1.0201C9.52901 0.340034 11.2109 0 12.9968 0C14.7941 0 16.4846 0.340553 18.0685 1.02166C19.6524 1.70277 21.0303 2.62961 22.2021 3.80218C23.3739 4.97474 24.2999 6.35148 24.9799 7.93241C25.66 9.51331 26 11.2014 26 12.9968C26 14.7846 25.6594 16.469 24.9783 18.0499C24.2972 19.6308 23.3704 21.0091 22.1978 22.1848C21.0253 23.3604 19.6485 24.2902 18.0676 24.9741C16.4867 25.6581 14.7986 26 13.0032 26Z" fill="#83B0E4"/>
</svg>
