<svg width="34" height="34" viewBox="0 0 34 34" fill="none" xmlns="http://www.w3.org/2000/svg">
<rect x="0.5" y="0.5" width="33" height="33" rx="9.5" fill="white" stroke="#A0A0A0"/>
<path d="M9.26482 19.9618C8.917 19.9618 8.61924 19.8379 8.37154 19.5903C8.12385 19.3426 8 19.0448 8 18.697V10.2648C8 9.917 8.12385 9.61924 8.37154 9.37154C8.61924 9.12385 8.917 9 9.26482 9H25.2859C25.6337 9 25.9315 9.12385 26.1792 9.37154C26.4269 9.61924 26.5507 9.917 26.5507 10.2648V18.697C26.5507 19.0448 26.4269 19.3426 26.1792 19.5903C25.9315 19.8379 25.6337 19.9618 25.2859 19.9618H9.26482ZM9.26482 18.697H25.2859V10.2648H9.26482V18.697ZM10.3821 22.8709C10.1994 22.8849 10.0448 22.8357 9.91831 22.7233C9.79183 22.6109 9.72156 22.4633 9.70751 22.2806C9.69346 22.0979 9.74616 21.9433 9.86561 21.8169C9.98507 21.6904 10.1361 21.6201 10.3188 21.6061L24.2108 20.8893C24.3935 20.8753 24.5481 20.9245 24.6746 21.0369C24.8011 21.1493 24.8713 21.2969 24.8854 21.4796C24.8994 21.6623 24.8467 21.8169 24.7273 21.9433C24.6078 22.0698 24.4567 22.1401 24.274 22.1542L10.3821 22.8709ZM10.3188 25C10.1361 25 9.98507 24.9403 9.86561 24.8208C9.74616 24.7014 9.68643 24.5503 9.68643 24.3676C9.68643 24.1849 9.74616 24.0338 9.86561 23.9144C9.98507 23.7949 10.1361 23.7352 10.3188 23.7352H24.2319C24.4146 23.7352 24.5657 23.7949 24.6851 23.9144C24.8046 24.0338 24.8643 24.1849 24.8643 24.3676C24.8643 24.5503 24.8046 24.7014 24.6851 24.8208C24.5657 24.9403 24.4146 25 24.2319 25H10.3188Z" fill="black"/>
<path d="M22.3346 15.7246C22.3346 16.083 22.1932 16.3869 21.9104 16.6364C21.6276 16.8858 21.2801 17.0105 20.868 17.0105C20.666 17.0105 20.4781 16.9772 20.3043 16.9104C20.1306 16.8437 19.9751 16.7505 19.8377 16.6311L18.8316 15.7352H17.1225C16.9852 15.7352 16.868 15.7721 16.771 15.8458C16.674 15.9196 16.5892 16.0057 16.5165 16.1041C16.2417 16.4203 15.9468 16.6504 15.6316 16.7945C15.3165 16.9385 14.9811 17.0105 14.6256 17.0105C14.0518 17.0105 13.5771 16.8296 13.2013 16.4677C12.8256 16.1058 12.6377 15.6895 12.6377 15.2187C12.6377 15.0501 12.6559 14.9113 12.6922 14.8024C12.7286 14.6935 12.771 14.5968 12.8195 14.5125C12.8599 14.4282 12.9023 14.3491 12.9468 14.2754C12.9912 14.2016 13.0134 14.1331 13.0134 14.0698C13.0134 13.9152 12.9488 13.7677 12.8195 13.6271C12.771 13.5498 12.7286 13.4726 12.6922 13.3953C12.6559 13.318 12.6377 13.2266 12.6377 13.1212C12.6377 12.7839 12.773 12.5046 13.0437 12.2833C13.3144 12.0619 13.6437 11.9513 14.0316 11.9513C14.2175 11.9513 14.4054 11.9846 14.5953 12.0514C14.7852 12.1181 14.9569 12.2183 15.1104 12.3518L16.1165 13.2055H18.8195L19.8377 12.3202C19.9751 12.2007 20.1326 12.1094 20.3104 12.0461C20.4882 11.9829 20.674 11.9513 20.868 11.9513C21.272 11.9513 21.6175 12.0725 21.9043 12.3149C22.1912 12.5573 22.3346 12.8577 22.3346 13.2161C22.3346 13.3777 22.2983 13.5375 22.2256 13.6957C22.1528 13.8538 22.0478 13.9925 21.9104 14.112C21.8538 14.1612 21.8114 14.2156 21.7831 14.2754C21.7549 14.3351 21.7407 14.4001 21.7407 14.4704C21.7407 14.5336 21.7549 14.5968 21.7831 14.6601C21.8114 14.7233 21.8538 14.7795 21.9104 14.8287C22.0478 14.9482 22.1528 15.0852 22.2256 15.2398C22.2983 15.3944 22.3346 15.556 22.3346 15.7246Z" fill="black"/>
</svg>
