<svg width="34" height="34" viewBox="0 0 34 34" fill="none" xmlns="http://www.w3.org/2000/svg">
<rect x="0.5" y="0.5" width="33" height="33" rx="9.5" fill="white" stroke="#A0A0A0"/>
<path d="M14.6 21.28H19.2C19.3867 21.28 19.5433 21.24 19.67 21.16C19.7967 21.08 19.9067 20.96 20 20.8L21.56 17.16C21.5867 17.0933 21.61 16.9933 21.63 16.86C21.65 16.7267 21.66 16.6267 21.66 16.56V16.08C21.66 15.8933 21.6167 15.7567 21.53 15.67C21.4433 15.5833 21.3067 15.54 21.12 15.54H16.84L17.42 12.78C17.4467 12.6733 17.4467 12.5733 17.42 12.48C17.3933 12.3867 17.3467 12.3067 17.28 12.24L16.86 11.8L13.64 15.28L13.48 15.6C13.4267 15.7067 13.4 15.82 13.4 15.94V20.08C13.4 20.3867 13.52 20.6633 13.76 20.91C14 21.1567 14.28 21.28 14.6 21.28ZM17 25C15.9067 25 14.8733 24.79 13.9 24.37C12.9267 23.95 12.0767 23.3767 11.35 22.65C10.6233 21.9233 10.05 21.0733 9.63 20.1C9.21 19.1267 9 18.0933 9 17C9 15.8933 9.21 14.8533 9.63 13.88C10.05 12.9067 10.6233 12.06 11.35 11.34C12.0767 10.62 12.9267 10.05 13.9 9.63C14.8733 9.21 15.9067 9 17 9C18.1067 9 19.1467 9.21 20.12 9.63C21.0933 10.05 21.94 10.62 22.66 11.34C23.38 12.06 23.95 12.9067 24.37 13.88C24.79 14.8533 25 15.8933 25 17C25 18.0933 24.79 19.1267 24.37 20.1C23.95 21.0733 23.38 21.9233 22.66 22.65C21.94 23.3767 21.0933 23.95 20.12 24.37C19.1467 24.79 18.1067 25 17 25ZM17 23.8C18.8933 23.8 20.5 23.1367 21.82 21.81C23.14 20.4833 23.8 18.88 23.8 17C23.8 15.1067 23.14 13.5 21.82 12.18C20.5 10.86 18.8933 10.2 17 10.2C15.12 10.2 13.5167 10.86 12.19 12.18C10.8633 13.5 10.2 15.1067 10.2 17C10.2 18.88 10.8633 20.4833 12.19 21.81C13.5167 23.1367 15.12 23.8 17 23.8Z" fill="black"/>
</svg>
