<svg width="40" height="28" viewBox="0 0 40 28" fill="none" xmlns="http://www.w3.org/2000/svg">
<path d="M7.38807 28C5.98258 28 4.79664 27.5045 3.83024 26.5135C2.86381 25.5226 2.3806 24.2942 2.3806 22.8284H0V0H28.7948V7.33104H32.9179L40 17.0358V22.8328H37.0784C37.0784 24.2957 36.5864 25.5226 35.6026 26.5135C34.6188 27.5045 33.4241 28 32.0186 28C30.6132 28 29.4272 27.5045 28.4608 26.5135C27.4944 25.5226 27.0112 24.2957 27.0112 22.8328H12.4478C12.4478 24.3084 11.9559 25.5385 10.972 26.5231C9.98821 27.5077 8.79356 28 7.38807 28ZM7.43284 26.4735C8.40797 26.4735 9.23882 26.1087 9.9254 25.3793C10.6119 24.6499 10.9552 23.7938 10.9552 22.811C10.9552 21.8282 10.6119 20.9857 9.9254 20.2835C9.23882 19.5813 8.40797 19.2302 7.43284 19.2302C6.45771 19.2302 5.62065 19.5813 4.92166 20.2835C4.22267 20.9857 3.87317 21.8282 3.87317 22.811C3.87317 23.7938 4.22267 24.6499 4.92166 25.3793C5.62065 26.1087 6.45771 26.4735 7.43284 26.4735ZM1.49252 21.3062H2.52239C2.79852 20.3115 3.39495 19.4605 4.31168 18.7532C5.22844 18.0459 6.2551 17.6922 7.39166 17.6922C8.47845 17.6922 9.4921 18.0414 10.4326 18.7398C11.3731 19.4382 11.9814 20.2936 12.2575 21.3062H27.3022V1.5265H1.49252V21.3062ZM32.0634 26.4735C33.0385 26.4735 33.8694 26.1087 34.556 25.3793C35.2425 24.6499 35.5858 23.7938 35.5858 22.811C35.5858 21.8282 35.2425 20.9857 34.556 20.2835C33.8694 19.5813 33.0385 19.2302 32.0634 19.2302C31.0883 19.2302 30.2513 19.5813 29.5522 20.2835C28.8532 20.9857 28.5037 21.8282 28.5037 22.811C28.5037 23.7938 28.8532 24.6499 29.5522 25.3793C30.2513 26.1087 31.0883 26.4735 32.0634 26.4735ZM28.7948 17.1923H38.3022L32.097 8.85759H28.7948V17.1923Z" fill="black"/>
</svg>
