<svg width="14" height="14" viewBox="0 0 14 14" fill="none" xmlns="http://www.w3.org/2000/svg">
<path d="M6.99965 10.4701C7.12652 10.4701 7.22784 10.4323 7.30363 10.3568C7.37942 10.2812 7.41732 10.18 7.41732 10.0531C7.41732 9.92626 7.37954 9.82493 7.30398 9.74915C7.22841 9.67336 7.12721 9.63546 7.00035 9.63546C6.87348 9.63546 6.77216 9.67324 6.69638 9.7488C6.62058 9.82436 6.58268 9.92558 6.58268 10.0524C6.58268 10.1793 6.62046 10.2806 6.69603 10.3564C6.77159 10.4322 6.87279 10.4701 6.99965 10.4701ZM7.03236 7.95877C7.11848 7.95877 7.18921 7.93016 7.24455 7.87294C7.29989 7.81573 7.32756 7.74462 7.32756 7.65961V3.47307C7.32756 3.38807 7.29858 3.31696 7.24063 3.25974C7.18265 3.20254 7.11061 3.17394 7.02448 3.17394C6.93835 3.17394 6.86762 3.20254 6.81228 3.25974C6.75694 3.31696 6.72928 3.38807 6.72928 3.47307V7.65961C6.72928 7.74462 6.75826 7.81573 6.81623 7.87294C6.87419 7.93016 6.94623 7.95877 7.03236 7.95877ZM7.00778 14C6.03327 14 5.12396 13.8163 4.27984 13.449C3.4357 13.0816 2.69521 12.5798 2.05837 11.9435C1.42154 11.3073 0.919269 10.567 0.551561 9.72273C0.183854 8.87842 0 7.96848 0 6.99288C0 6.02726 0.183679 5.1194 0.551036 4.26932C0.918407 3.41923 1.42022 2.67901 2.05646 2.04865C2.69271 1.4183 3.43298 0.919269 4.27727 0.551561C5.12158 0.183854 6.03152 0 7.00712 0C7.97274 0 8.8806 0.183679 9.73068 0.551036C10.5808 0.918407 11.321 1.41697 11.9514 2.04674C12.5817 2.67651 13.0807 3.41706 13.4484 4.26841C13.8161 5.11976 14 6.0277 14 6.99222C14 7.96673 13.8163 8.87604 13.449 9.72016C13.0816 10.5643 12.583 11.3036 11.9533 11.938C11.3235 12.5725 10.5829 13.0748 9.73159 13.4449C8.88024 13.815 7.9723 14 7.00778 14Z" fill="#AAA9AE"/>
</svg>
