<svg width="34" height="34" viewBox="0 0 34 34" fill="none" xmlns="http://www.w3.org/2000/svg">
<rect x="0.5" y="0.5" width="33" height="33" rx="9.5" fill="white" stroke="#A0A0A0"/>
<path d="M23.7797 24.774L18.3333 19.3277C17.8814 19.7194 17.3544 20.0245 16.7523 20.2429C16.1503 20.4614 15.5097 20.5706 14.8305 20.5706C13.2009 20.5706 11.8218 20.0056 10.6931 18.8757C9.56436 17.7458 9 16.3823 9 14.7853C9 13.1883 9.56497 11.8249 10.6949 10.6949C11.8249 9.56497 13.1921 9 14.7966 9C16.4011 9 17.7646 9.56497 18.887 10.6949C20.0094 11.8249 20.5706 13.1895 20.5706 14.7887C20.5706 15.4343 20.4652 16.0584 20.2542 16.661C20.0433 17.2637 19.7269 17.8286 19.3051 18.3559L24.7966 23.8023C24.9322 23.9294 25 24.0855 25 24.2705C25 24.4555 24.9253 24.6227 24.776 24.772C24.6391 24.9089 24.471 24.9774 24.2718 24.9774C24.0726 24.9774 23.9086 24.9096 23.7797 24.774ZM14.8079 19.2147C16.032 19.2147 17.0725 18.7815 17.9294 17.9153C18.7863 17.049 19.2147 16.0056 19.2147 14.7853C19.2147 13.565 18.7863 12.5217 17.9294 11.6554C17.0725 10.7891 16.032 10.3559 14.8079 10.3559C13.5713 10.3559 12.5201 10.7891 11.6544 11.6554C10.7888 12.5217 10.3559 13.565 10.3559 14.7853C10.3559 16.0056 10.7888 17.049 11.6544 17.9153C12.5201 18.7815 13.5713 19.2147 14.8079 19.2147Z" fill="black"/>
</svg>
