<svg width="34" height="34" viewBox="0 0 34 34" fill="none" xmlns="http://www.w3.org/2000/svg">
<rect x="0.5" y="0.5" width="33" height="33" rx="9.5" fill="white" stroke="#A0A0A0"/>
<path d="M11.0858 25.5536C10.5059 25.5536 10.0133 25.351 9.60799 24.9456C9.20266 24.5403 9 24.0477 9 23.4678V21.7236C9 21.5325 9.06462 21.3724 9.19386 21.2431C9.3231 21.1139 9.48325 21.0493 9.67431 21.0493H11.9238V8.5754C11.9238 8.41358 11.9921 8.32217 12.1288 8.30118C12.2655 8.2802 12.3931 8.32906 12.5118 8.44775L13.2185 9.15441L14.2844 8.10442C14.3497 8.03481 14.4311 8 14.5285 8C14.6259 8 14.7092 8.03527 14.7782 8.1058L15.8294 9.15441L16.8953 8.10442C16.9606 8.03481 17.042 8 17.1394 8C17.2369 8 17.3198 8.03527 17.3881 8.1058L18.4547 9.15441L19.5206 8.10442C19.5859 8.03481 19.6673 8 19.7647 8C19.8622 8 19.9451 8.03527 20.0134 8.1058L21.08 9.15441L22.1459 8.10442C22.2113 8.03481 22.2926 8 22.3901 8C22.4875 8 22.5704 8.03527 22.6388 8.1058L23.7053 9.15441L24.412 8.44775C24.5307 8.32307 24.6584 8.27422 24.795 8.30118C24.9317 8.32816 25 8.42169 25 8.58179V23.4678C25 24.0477 24.7973 24.5403 24.392 24.9456C23.9867 25.351 23.4941 25.5536 22.9142 25.5536H11.0858ZM22.9187 24.4927C23.2153 24.4927 23.4596 24.3968 23.6514 24.205C23.8432 24.0132 23.9391 23.7675 23.9391 23.4678V9.78374H12.9847V21.0493H21.2239C21.4149 21.0493 21.5751 21.1139 21.7043 21.2431C21.8336 21.3724 21.8982 21.5325 21.8982 21.7236V23.4666C21.8982 23.7671 21.9941 24.0132 22.1859 24.205C22.3777 24.3968 22.622 24.4927 22.9187 24.4927ZM14.8296 13.2524C14.6906 13.2524 14.5713 13.2001 14.4718 13.0956C14.3723 12.9911 14.3225 12.8641 14.3225 12.7144C14.3225 12.5648 14.3734 12.4402 14.475 12.3407C14.5767 12.2412 14.7027 12.1915 14.853 12.1915H19.0967C19.247 12.1915 19.3729 12.2428 19.4746 12.3453C19.5763 12.4479 19.6271 12.5749 19.6271 12.7265C19.6271 12.8781 19.5763 13.0036 19.4746 13.1031C19.3729 13.2026 19.247 13.2524 19.0967 13.2524H14.8296ZM14.8296 16.3039C14.6906 16.3039 14.5713 16.2501 14.4718 16.1425C14.3723 16.0349 14.3225 15.9078 14.3225 15.7613C14.3225 15.6147 14.3734 15.4917 14.475 15.3922C14.5767 15.2927 14.7027 15.243 14.853 15.243H19.0967C19.247 15.243 19.3729 15.2943 19.4746 15.3968C19.5763 15.4993 19.6271 15.6264 19.6271 15.778C19.6271 15.9296 19.5763 16.0551 19.4746 16.1546C19.3729 16.2541 19.247 16.3039 19.0967 16.3039H14.8296ZM21.7921 13.3783C21.6171 13.3783 21.4639 13.3126 21.3327 13.1814C21.2014 13.0501 21.1358 12.897 21.1358 12.7219C21.1358 12.5469 21.2014 12.3938 21.3327 12.2625C21.4639 12.1312 21.6171 12.0656 21.7921 12.0656C21.9671 12.0656 22.1203 12.1312 22.2515 12.2625C22.3828 12.3938 22.4484 12.5469 22.4484 12.7219C22.4484 12.897 22.3828 13.0501 22.2515 13.1814C22.1203 13.3126 21.9671 13.3783 21.7921 13.3783ZM21.7921 16.3398C21.6171 16.3398 21.4639 16.2742 21.3327 16.1429C21.2014 16.0117 21.1358 15.8585 21.1358 15.6835C21.1358 15.5085 21.2014 15.3554 21.3327 15.2241C21.4639 15.0928 21.6171 15.0272 21.7921 15.0272C21.9671 15.0272 22.1203 15.0928 22.2515 15.2241C22.3828 15.3554 22.4484 15.5085 22.4484 15.6835C22.4484 15.8585 22.3828 16.0117 22.2515 16.1429C22.1203 16.2742 21.9671 16.3398 21.7921 16.3398ZM11.065 24.4927H20.8373V22.1102H10.0609V23.4678C10.0609 23.7675 10.158 24.0132 10.3521 24.205C10.5462 24.3968 10.7839 24.4927 11.065 24.4927Z" fill="black"/>
</svg>
