<svg width="30" height="38" viewBox="0 0 30 38" fill="none" xmlns="http://www.w3.org/2000/svg">
<path d="M2.88466 38C2.10036 38 1.4235 37.7153 0.854102 37.1459C0.2847 36.5765 0 35.8996 0 35.1153V2.88466C0 2.10035 0.2847 1.42351 0.854102 0.854104C1.4235 0.284702 2.10036 0 2.88466 0H19.0693C19.4713 0 19.8506 0.0801358 20.2073 0.240403C20.564 0.40067 20.8757 0.607719 21.1423 0.861553L29.1384 8.85767C29.3923 9.12434 29.5993 9.43601 29.7596 9.79268C29.9199 10.1494 30 10.5287 30 10.9307V35.1153C30 35.8996 29.7153 36.5765 29.1459 37.1459C28.5765 37.7153 27.8996 38 27.1153 38H2.88466ZM19.127 9.31917V2.26921H2.88466C2.73079 2.26921 2.58974 2.33331 2.46151 2.46151C2.33331 2.58974 2.26921 2.73079 2.26921 2.88466V35.1153C2.26921 35.2692 2.33331 35.4103 2.46151 35.5385C2.58974 35.6667 2.73079 35.7308 2.88466 35.7308H27.1153C27.2692 35.7308 27.4103 35.6667 27.5385 35.5385C27.6667 35.4103 27.7308 35.2692 27.7308 35.1153V10.7615H20.5693C20.1699 10.7615 19.8297 10.6209 19.5486 10.3398C19.2675 10.0588 19.127 9.71854 19.127 9.31917Z" fill="#3744F5"/>
<rect x="8.57153" y="18.8889" width="10.7143" height="4.22222" rx="1" fill="#3744F5"/>
<path d="M20.5368 20.2393C21.0048 20.6386 21.0048 21.3616 20.5368 21.7608L16.649 25.0779C15.9998 25.6318 14.9999 25.1705 14.9999 24.3172L14.9999 17.683C14.9999 16.8297 15.9998 16.3684 16.649 16.9222L20.5368 20.2393Z" fill="#3744F5"/>
</svg>
