<svg width="26" height="26" viewBox="0 0 26 26" fill="none" xmlns="http://www.w3.org/2000/svg">
<path d="M2.27922 26C1.63203 26 1.09037 25.7819 0.65422 25.3458C0.218073 24.9096 0 24.368 0 23.7208V2.27922C0 1.63203 0.218073 1.09037 0.65422 0.65422C1.09037 0.218073 1.63203 0 2.27922 0H23.7208C24.368 0 24.9096 0.218073 25.3458 0.65422C25.7819 1.09037 26 1.63203 26 2.27922V23.7208C26 24.368 25.7819 24.9096 25.3458 25.3458C24.9096 25.7819 24.368 26 23.7208 26H2.27922ZM2.27922 25.0714H23.7208C24.0584 25.0714 24.368 24.9307 24.6493 24.6493C24.9307 24.368 25.0714 24.0584 25.0714 23.7208V2.27922C25.0714 1.94156 24.9307 1.63203 24.6493 1.35065C24.368 1.06926 24.0584 0.928571 23.7208 0.928571H2.27922C1.94156 0.928571 1.63203 1.06926 1.35065 1.35065C1.06926 1.63203 0.928571 1.94156 0.928571 2.27922V23.7208C0.928571 24.0584 1.06926 24.368 1.35065 24.6493C1.63203 24.9307 1.94156 25.0714 2.27922 25.0714Z" fill="black"/>
<path d="M19.781 20.3159L14.819 15.3388C14.3935 15.7105 13.8994 15.9893 13.3366 16.1752C12.7738 16.361 12.2248 16.454 11.6894 16.454C10.3443 16.454 9.21532 15.9962 8.30253 15.0806C7.38974 14.165 6.93335 13.0395 6.93335 11.704C6.93335 10.3547 7.38974 9.22229 8.30253 8.30672C9.21532 7.39114 10.3374 6.93335 11.6689 6.93335C13.0003 6.93335 14.1293 7.39114 15.0558 8.30672C15.9823 9.22229 16.4455 10.3478 16.4455 11.6833C16.4455 12.2616 16.346 12.8261 16.147 13.3768C15.948 13.9275 15.67 14.4025 15.3131 14.8018L20.3369 19.8203C20.4055 19.9029 20.4398 19.9924 20.4398 20.0888C20.4398 20.1851 20.3987 20.2677 20.3163 20.3366C20.234 20.4054 20.1447 20.4398 20.0486 20.4398C19.9526 20.4398 19.8633 20.3985 19.781 20.3159ZM11.6894 15.7312C12.8287 15.7312 13.7861 15.3457 14.5616 14.5746C15.3372 13.8036 15.7249 12.8399 15.7249 11.6833C15.7249 10.5406 15.3372 9.58371 14.5616 8.81269C13.7861 8.04168 12.8287 7.65617 11.6894 7.65617C10.5365 7.65617 9.57563 8.04168 8.80696 8.81269C8.0383 9.58371 7.65397 10.5406 7.65397 11.6833C7.65397 12.8399 8.0383 13.8036 8.80696 14.5746C9.57563 15.3457 10.5365 15.7312 11.6894 15.7312Z" fill="black"/>
</svg>
