<svg width="26" height="26" viewBox="0 0 26 26" fill="none" xmlns="http://www.w3.org/2000/svg">
<path d="M10.5695 8.58475C10.4091 8.58475 10.2741 8.52542 10.1644 8.40678C10.0548 8.28814 10 8.14689 10 7.98305C10 7.81356 10.0561 7.6709 10.1684 7.55508C10.2807 7.43927 10.4144 7.38136 10.5695 7.38136C10.7299 7.38136 10.865 7.44068 10.9746 7.55932C11.0842 7.67797 11.139 7.81921 11.139 7.98305C11.139 8.15254 11.0829 8.2952 10.9706 8.41102C10.8583 8.52684 10.7246 8.58475 10.5695 8.58475ZM12.0214 7.20339C11.8663 7.20339 11.734 7.14407 11.6243 7.02542C11.5147 6.90678 11.4599 6.76554 11.4599 6.60169C11.4599 6.4322 11.516 6.28955 11.6283 6.17373C11.7406 6.05791 11.8743 6 12.0294 6C12.1845 6 12.3182 6.05932 12.4305 6.17797C12.5428 6.29661 12.5989 6.43785 12.5989 6.60169C12.5989 6.77119 12.5414 6.91384 12.4265 7.02966C12.3115 7.14548 12.1765 7.20339 12.0214 7.20339ZM13.9706 7.20339C13.8155 7.20339 13.6832 7.14407 13.5735 7.02542C13.4639 6.90678 13.4091 6.76554 13.4091 6.60169C13.4091 6.4322 13.4652 6.28955 13.5775 6.17373C13.6898 6.05791 13.8235 6 13.9786 6C14.1337 6 14.2674 6.05932 14.3797 6.17797C14.492 6.29661 14.5481 6.43785 14.5481 6.60169C14.5481 6.77119 14.4906 6.91384 14.3757 7.02966C14.2607 7.14548 14.1257 7.20339 13.9706 7.20339ZM15.4305 8.58475C15.2701 8.58475 15.135 8.52542 15.0254 8.40678C14.9158 8.28814 14.861 8.14689 14.861 7.98305C14.861 7.81356 14.9171 7.6709 15.0294 7.55508C15.1417 7.43927 15.2754 7.38136 15.4305 7.38136C15.5909 7.38136 15.7259 7.44068 15.8356 7.55932C15.9452 7.67797 16 7.81921 16 7.98305C16 8.15254 15.9439 8.2952 15.8316 8.41102C15.7193 8.52684 15.5856 8.58475 15.4305 8.58475ZM11.2834 12C11.107 12 10.9599 11.9266 10.8422 11.7797C10.7246 11.6328 10.6658 11.4605 10.6658 11.2627C10.6658 11.0141 10.7513 10.7994 10.9225 10.6186C11.0936 10.4379 11.254 10.2542 11.4037 10.0678C11.5481 9.90395 11.6765 9.73164 11.7888 9.55085C11.9011 9.37006 12.0214 9.19209 12.1497 9.01695C12.262 8.85876 12.3877 8.72034 12.5267 8.60169C12.6658 8.48305 12.8235 8.42373 13 8.42373C13.1818 8.42373 13.3449 8.48446 13.4893 8.60593C13.6337 8.7274 13.7594 8.86723 13.8663 9.02542C14 9.19491 14.1203 9.37147 14.2273 9.55508C14.3342 9.7387 14.4572 9.9096 14.5963 10.0678C14.7513 10.2542 14.9131 10.4379 15.0816 10.6186C15.25 10.7994 15.3342 11.0141 15.3342 11.2627C15.3342 11.4605 15.2767 11.6328 15.1618 11.7797C15.0468 11.9266 14.8984 12 14.7166 12C14.4278 12 14.1417 11.9746 13.8583 11.9237C13.5749 11.8729 13.2888 11.8475 13 11.8475C12.7112 11.8475 12.4251 11.8729 12.1417 11.9237C11.8583 11.9746 11.5722 12 11.2834 12Z" fill="black"/>
<path d="M2.24718 1.05385C2.09692 1.05385 1.98422 1.00595 1.90908 0.910147C1.83395 0.814342 1.79638 0.670635 1.79638 0.479025C1.79638 0.351285 1.83395 0.239512 1.90908 0.143707C1.98422 0.0479022 2.09692 0 2.24718 0H23.8482C23.9483 0 24.036 0.0479022 24.1111 0.143707C24.1863 0.239512 24.2238 0.367253 24.2238 0.526928C24.2238 0.686603 24.1863 0.814342 24.1111 0.910147C24.036 1.00595 23.9483 1.05385 23.8482 1.05385H2.24718ZM3.03609 26C2.73556 26 2.49137 25.8802 2.30354 25.6407C2.1157 25.4012 2.02178 25.0899 2.02178 24.7066V14.2639H1.00748C0.681897 14.2639 0.418928 14.0962 0.218571 13.7609C0.0182142 13.4256 -0.0443973 13.0344 0.0307366 12.5873L1.57098 4.53968C1.64611 4.2842 1.78386 4.06066 1.98422 3.86905C2.18457 3.67744 2.39745 3.58163 2.62285 3.58163H23.4349C23.6102 3.58163 23.7981 3.67744 23.9984 3.86905C24.1988 4.06066 24.3365 4.2842 24.4117 4.53968L25.9519 12.5873C26.0521 13.0344 25.9957 13.4256 25.7829 13.7609C25.57 14.0962 25.3008 14.2639 24.9752 14.2639H23.9984V25.4252C23.9984 25.6168 23.9609 25.7605 23.8857 25.8563C23.8106 25.9521 23.7104 26 23.5852 26C23.46 26 23.3598 25.9521 23.2847 25.8563C23.2095 25.7605 23.172 25.6168 23.172 25.4252V14.2639H14.8697V24.7066C14.8697 25.0899 14.7758 25.4012 14.5879 25.6407C14.4001 25.8802 14.1559 26 13.8554 26H3.03609ZM2.84826 24.9461H14.0432V14.2639H2.84826V24.9461ZM0.782075 13.21H25.2757L23.6603 4.63549H2.39745L0.782075 13.21Z" fill="black"/>
</svg>
