<svg width="26" height="26" viewBox="0 0 26 26" fill="none" xmlns="http://www.w3.org/2000/svg">
<circle cx="13" cy="13" r="12.5" stroke="black"/>
<circle cx="8.66662" cy="9.75002" r="1.08333" fill="black"/>
<circle cx="17.3333" cy="9.75002" r="1.08333" fill="black"/>
<mask id="mask0_1268_419" style="mask-type:alpha" maskUnits="userSpaceOnUse" x="5" y="14" width="16" height="7">
<rect x="20.5833" y="20.5834" width="15.1667" height="6.5" transform="rotate(-180 20.5833 20.5834)" fill="white"/>
</mask>
<g mask="url(#mask0_1268_419)">
<path d="M6.86454 12.8646C6.86454 11.8474 7.47659 10.8675 8.58731 10.1195C9.69499 9.37347 11.2536 8.89587 13 8.89587C14.7463 8.89587 16.3049 9.37347 17.4126 10.1195C18.5233 10.8675 19.1354 11.8474 19.1354 12.8646C19.1354 13.8818 18.5233 14.8618 17.4126 15.6098C16.3049 16.3558 14.7463 16.8334 13 16.8334C11.2536 16.8334 9.69499 16.3558 8.58731 15.6098C7.47659 14.8618 6.86454 13.8818 6.86454 12.8646Z" stroke="black"/>
</g>
</svg>
