<svg width="26" height="26" viewBox="0 0 26 26" fill="none" xmlns="http://www.w3.org/2000/svg">
<path d="M19.0619 24.3535L21.4223 21.9814L17.2737 17.8746L14.8776 20.2112C14.2815 20.8013 13.9895 21.4976 14.0014 22.3001C14.0133 23.1025 14.3054 23.787 14.8776 24.3535C15.4498 24.9199 16.1412 25.209 16.9519 25.2208C17.7625 25.2326 18.4658 24.9435 19.0619 24.3535ZM21.923 21.4504L24.3549 19.1137C24.9271 18.5473 25.2072 17.8628 25.1953 17.0603C25.1834 16.2578 24.8913 15.5616 24.3191 14.9715C23.7231 14.4287 23.0257 14.1513 22.227 14.1395C21.4282 14.1277 20.7428 14.4051 20.1706 14.9715L17.8102 17.379L21.923 21.4504ZM19.5626 24.9199C18.8235 25.6516 17.9473 26.0115 16.934 25.9997C15.9207 25.9879 15.0445 25.628 14.3054 24.9199C13.5901 24.1882 13.2265 23.3209 13.2146 22.3178C13.2027 21.3147 13.5663 20.4473 14.3054 19.7156L19.6341 14.4405C20.3494 13.7324 21.2256 13.3784 22.2627 13.3784C23.2999 13.3784 24.1761 13.7324 24.8913 14.4405C25.6304 15.1721 26 16.0395 26 17.0426C26 18.0457 25.6304 18.9131 24.8913 19.6448L19.5626 24.9199ZM1.93122 21.8752C1.40669 21.8752 0.95369 21.6864 0.572214 21.3088C0.190738 20.9311 0 20.4827 0 19.9634V1.97841C0 1.45916 0.190738 1.01071 0.572214 0.633073C0.95369 0.255435 1.40669 0.066617 1.93122 0.066617H9.26272L10 0H11H14.5H16.5H17L20.099 0.066617C20.6236 0.066617 21.0766 0.255435 21.458 0.633073C21.8395 1.01071 22.0303 1.45916 22.0303 1.97841V9.34235C21.9111 9.34235 21.7799 9.35415 21.6369 9.37775C21.4938 9.40135 21.3627 9.41316 21.2435 9.41316V1.97841C21.2435 1.64798 21.1362 1.37655 20.9216 1.16413C20.707 0.951706 20.4328 0.845495 20.099 0.845495H1.93122C1.59743 0.845495 1.32325 0.951706 1.10867 1.16413C0.894085 1.37655 0.786795 1.64798 0.786795 1.97841V19.9634C0.786795 20.2938 0.894085 20.5653 1.10867 20.7777C1.32325 20.9901 1.59743 21.0963 1.93122 21.0963H9.26272C9.26272 21.2143 9.2508 21.3442 9.22696 21.4858C9.20312 21.6274 9.1912 21.7572 9.1912 21.8752H1.93122ZM4.7923 6.01442V5.23554H17.238V6.01442H4.7923ZM4.7923 11.3603V10.5815H17.238V11.1125L17.0234 11.3249C16.9519 11.3958 16.8684 11.4666 16.773 11.5374L16.9519 11.3603H4.7923ZM4.7923 16.7063V15.9274H12.3384L12.4457 15.8566C12.3026 15.9982 12.1536 16.1398 11.9986 16.2814C11.8437 16.4231 11.6946 16.5647 11.5516 16.7063H4.7923Z" fill="black"/>
</svg>
