<svg width="8" height="16" viewBox="0 0 8 16" fill="none" xmlns="http://www.w3.org/2000/svg">
<path d="M0.18488 15.8182C0.0645044 15.6794 0.00290988 15.5345 9.7942e-05 15.3838C-0.00273845 15.233 0.0588561 15.0911 0.18488 14.9582L6.75297 8.03043L0.176407 1.06396C0.0560313 0.956825 -0.00273845 0.818445 9.7942e-05 0.648819C0.00290988 0.479219 0.0645044 0.330923 0.18488 0.203929C0.316552 0.065072 0.452454 -0.00287289 0.592586 9.30402e-05C0.732694 0.00308476 0.86576 0.0710297 0.991784 0.203929L7.6699 7.27756C7.77336 7.38666 7.85424 7.50073 7.91256 7.61978C7.97085 7.7388 8 7.87569 8 8.03043C8 8.16534 7.97085 8.29727 7.91256 8.42623C7.85424 8.55518 7.77336 8.67422 7.6699 8.78334L1.00026 15.8182C0.874232 15.9512 0.739748 16.0112 0.596804 15.9983C0.45386 15.9854 0.316552 15.9254 0.18488 15.8182Z" fill="#5A5A5A"/>
</svg>
