<svg width="20" height="19" viewBox="0 0 20 19" fill="none" xmlns="http://www.w3.org/2000/svg">
<path d="M3.38889 15.5791C4.44444 14.931 5.49537 14.4241 6.54167 14.0585C7.58796 13.6929 8.74074 13.5101 10 13.5101C11.2593 13.5101 12.412 13.6929 13.4583 14.0585C14.5046 14.4241 15.5556 14.931 16.6111 15.5791C17.4074 14.798 18.0278 13.9297 18.4722 12.9741C18.9167 12.0186 19.1389 10.984 19.1389 9.87059C19.1389 7.57721 18.2546 5.63697 16.4861 4.04989C14.7176 2.4628 12.5556 1.66925 10 1.66925C7.44444 1.66925 5.28241 2.4628 3.51389 4.04989C1.74537 5.63697 0.861111 7.57721 0.861111 9.87059C0.861111 10.984 1.08333 12.0186 1.52778 12.9741C1.97222 13.9297 2.59259 14.798 3.38889 15.5791ZM10 10.2445C9.07407 10.2445 8.29167 9.962 7.65278 9.39696C7.01389 8.83192 6.69444 8.13394 6.69444 7.303C6.69444 6.47206 7.01389 5.76992 7.65278 5.19658C8.29167 4.62323 9.07407 4.33656 10 4.33656C10.9259 4.33656 11.7083 4.62323 12.3472 5.19658C12.9861 5.76992 13.3056 6.47206 13.3056 7.303C13.3056 8.13394 12.9861 8.83192 12.3472 9.39696C11.7083 9.962 10.9259 10.2445 10 10.2445ZM10 18.8447C8.61111 18.8447 7.31019 18.612 6.09722 18.1467C4.88426 17.6814 3.82407 17.0416 2.91667 16.2273C2.00926 15.4129 1.2963 14.4657 0.777778 13.3855C0.259259 12.3052 0 11.1336 0 9.87059C0 8.62419 0.259259 7.45672 0.777778 6.3682C1.2963 5.27967 2.00926 4.32825 2.91667 3.51393C3.82407 2.69962 4.87963 2.05979 6.08333 1.59447C7.28704 1.12915 8.59259 0.896484 10 0.896484C11.3889 0.896484 12.6898 1.12915 13.9028 1.59447C15.1157 2.05979 16.1759 2.69962 17.0833 3.51393C17.9907 4.32825 18.7037 5.27967 19.2222 6.3682C19.7407 7.45672 20 8.62419 20 9.87059C20 11.117 19.7407 12.2845 19.2222 13.373C18.7037 14.4615 17.9907 15.4129 17.0833 16.2273C16.1759 17.0416 15.1157 17.6814 13.9028 18.1467C12.6898 18.612 11.3889 18.8447 10 18.8447ZM10 18.0719C11.0556 18.0719 12.0972 17.9099 13.125 17.5858C14.1528 17.2618 15.0833 16.7757 15.9167 16.1275C15.0833 15.5625 14.1667 15.1138 13.1667 14.7814C12.1667 14.449 11.1111 14.2829 10 14.2829C8.88889 14.2829 7.8287 14.4449 6.81944 14.769C5.81019 15.093 4.89815 15.5459 4.08333 16.1275C4.91667 16.7757 5.84722 17.2618 6.875 17.5858C7.90278 17.9099 8.94444 18.0719 10 18.0719ZM10 9.49667C10.7037 9.49667 11.287 9.28478 11.75 8.86101C12.213 8.43723 12.4444 7.91789 12.4444 7.303C12.4444 6.67149 12.213 6.148 11.75 5.73253C11.287 5.31706 10.7037 5.10933 10 5.10933C9.2963 5.10933 8.71296 5.31706 8.25 5.73253C7.78704 6.148 7.55556 6.67149 7.55556 7.303C7.55556 7.93451 7.78704 8.458 8.25 8.87347C8.71296 9.28894 9.2963 9.49667 10 9.49667Z" fill="#777777"/>
</svg>
