<svg width="60" height="60" viewBox="0 0 60 60" fill="none" xmlns="http://www.w3.org/2000/svg">
<circle cx="30" cy="30" r="30" fill="#E1ECF7"/>
<path d="M13.1602 28V14.9091H18.8107C19.7823 14.9091 20.6325 15.1009 21.3612 15.4844C22.0898 15.8679 22.6566 16.407 23.0614 17.1016C23.4663 17.7962 23.6687 18.608 23.6687 19.5369C23.6687 20.4744 23.4599 21.2862 23.0423 21.9723C22.6289 22.6584 22.0472 23.1868 21.2972 23.5575C20.5515 23.9283 19.68 24.1136 18.6829 24.1136H15.3079V21.3523H17.967C18.3846 21.3523 18.7404 21.2798 19.0344 21.1349C19.3327 20.9858 19.5607 20.7749 19.7184 20.5021C19.8803 20.2294 19.9613 19.9077 19.9613 19.5369C19.9613 19.1619 19.8803 18.8423 19.7184 18.5781C19.5607 18.3097 19.3327 18.1051 19.0344 17.9645C18.7404 17.8196 18.3846 17.7472 17.967 17.7472H16.7141V28H13.1602ZM24.9727 28V14.9091H34.4073V17.7727H28.5266V20.0227H33.9215V22.8864H28.5266V25.1364H34.3817V28H24.9727ZM35.812 17.7727V14.9091H47.1898V17.7727H43.2523V28H39.7495V17.7727H35.812ZM11.2441 46V32.9091H16.9203C17.9174 32.9091 18.7548 33.0433 19.4324 33.3118C20.1142 33.5803 20.6277 33.9595 20.9728 34.4496C21.3223 34.9396 21.497 35.517 21.497 36.1818C21.497 36.6634 21.3904 37.1023 21.1774 37.4986C20.9686 37.8949 20.6745 38.2273 20.2953 38.4957C19.916 38.7599 19.4728 38.9432 18.9657 39.0455V39.1733C19.5282 39.1946 20.0396 39.3374 20.4998 39.6016C20.96 39.8615 21.3265 40.2216 21.5993 40.6818C21.872 41.1378 22.0083 41.6747 22.0083 42.2926C22.0083 43.0085 21.8208 43.6456 21.4458 44.2038C21.0751 44.7621 20.5467 45.201 19.8606 45.5206C19.1745 45.8402 18.3564 46 17.4061 46H11.2441ZM14.7981 43.1619H16.4601C17.0566 43.1619 17.5041 43.0511 17.8024 42.8295C18.1007 42.6037 18.2498 42.2713 18.2498 41.8324C18.2498 41.5256 18.1795 41.2656 18.0389 41.0526C17.8983 40.8395 17.698 40.6776 17.438 40.5668C17.1824 40.456 16.8734 40.4006 16.5112 40.4006H14.7981V43.1619ZM14.7981 38.2017H16.2555C16.5666 38.2017 16.8414 38.1527 17.0801 38.0547C17.3187 37.9567 17.5041 37.8161 17.6362 37.6328C17.7725 37.4453 17.8407 37.2173 17.8407 36.9489C17.8407 36.544 17.6958 36.2351 17.4061 36.022C17.1163 35.8047 16.7498 35.696 16.3066 35.696H14.7981V38.2017ZM35.9494 39.4545C35.9494 40.9119 35.666 42.1413 35.0993 43.1428C34.5325 44.1399 33.7676 44.8963 32.8045 45.4119C31.8414 45.9233 30.7676 46.179 29.5829 46.179C28.3897 46.179 27.3116 45.9212 26.3485 45.4055C25.3897 44.8857 24.627 44.1271 24.0602 43.13C23.4977 42.1286 23.2164 40.9034 23.2164 39.4545C23.2164 37.9972 23.4977 36.7699 24.0602 35.7727C24.627 34.7713 25.3897 34.0149 26.3485 33.5036C27.3116 32.9879 28.3897 32.7301 29.5829 32.7301C30.7676 32.7301 31.8414 32.9879 32.8045 33.5036C33.7676 34.0149 34.5325 34.7713 35.0993 35.7727C35.666 36.7699 35.9494 37.9972 35.9494 39.4545ZM32.2931 39.4545C32.2931 38.6705 32.1887 38.0099 31.9799 37.473C31.7754 36.9318 31.4707 36.5227 31.0659 36.2457C30.6653 35.9645 30.171 35.8239 29.5829 35.8239C28.9949 35.8239 28.4984 35.9645 28.0936 36.2457C27.693 36.5227 27.3883 36.9318 27.1795 37.473C26.975 38.0099 26.8727 38.6705 26.8727 39.4545C26.8727 40.2386 26.975 40.9013 27.1795 41.4425C27.3883 41.9794 27.693 42.3885 28.0936 42.6697C28.4984 42.9467 28.9949 43.0852 29.5829 43.0852C30.171 43.0852 30.6653 42.9467 31.0659 42.6697C31.4707 42.3885 31.7754 41.9794 31.9799 41.4425C32.1887 40.9013 32.2931 40.2386 32.2931 39.4545ZM40.5245 32.9091L42.6722 36.7188H42.7745L44.9478 32.9091H48.9109L44.9989 39.4545L49.0643 46H44.9989L42.7745 42.1136H42.6722L40.4478 46H36.408L40.4222 39.4545L36.5359 32.9091H40.5245Z" fill="#D74335"/>
</svg>
