<svg width="34" height="34" viewBox="0 0 34 34" fill="none" xmlns="http://www.w3.org/2000/svg">
<rect x="0.5" y="0.5" width="33" height="33" rx="9.5" fill="white" stroke="#A0A0A0"/>
<path d="M22.4657 24.98L23.5243 23.9014L21.6667 22.0437L20.588 23.1024C20.3217 23.3687 20.1918 23.6816 20.1985 24.0412C20.2052 24.4008 20.335 24.7137 20.588 24.98C20.8543 25.233 21.1673 25.3629 21.5268 25.3695C21.8864 25.3762 22.1993 25.2464 22.4657 24.98ZM24.3433 23.0824L25.422 22.0237C25.6883 21.7574 25.8181 21.4444 25.8115 21.0849C25.8048 20.7253 25.6683 20.4124 25.402 20.1461C25.1357 19.8797 24.8275 19.7466 24.4776 19.7466C24.1276 19.7466 23.8165 19.8797 23.5443 20.1461L22.4856 21.2247L24.3433 23.0824ZM23.3046 25.819C22.8119 26.3117 22.2193 26.5581 21.5268 26.5581C20.8344 26.5581 20.2418 26.3117 19.7491 25.819C19.2563 25.3263 19.01 24.7337 19.01 24.0412C19.01 23.3487 19.2563 22.7561 19.7491 22.2634L22.7054 19.3071C23.1981 18.8144 23.7907 18.568 24.4831 18.568C25.1756 18.568 25.7682 18.8144 26.2609 19.3071C26.7536 19.7998 27 20.3924 27 21.0849C27 21.7774 26.7536 22.37 26.2609 22.8627L23.3046 25.819ZM12.1985 24.98C11.8689 24.98 11.5868 24.8627 11.3521 24.628C11.1174 24.3933 11 24.1111 11 23.7815V11.7965C11 11.4669 11.1174 11.1848 11.3521 10.9501C11.5868 10.7154 11.8689 10.598 12.1985 10.598H16.2934C16.36 10.1319 16.573 9.74906 16.9326 9.44944C17.2921 9.14981 17.7116 9 18.191 9C18.6704 9 19.0899 9.14981 19.4494 9.44944C19.809 9.74906 20.0221 10.1319 20.0886 10.598H24.1835C24.5131 10.598 24.7953 10.7154 25.03 10.9501C25.2647 11.1848 25.382 11.4669 25.382 11.7965V17.4694C25.1823 17.4161 24.9825 17.3829 24.7828 17.3695C24.583 17.3562 24.3833 17.3629 24.1835 17.3895V11.7965H12.1985V23.7815H17.8115C17.7982 23.9813 17.8015 24.181 17.8215 24.3808C17.8414 24.5805 17.8781 24.7803 17.9313 24.98H12.1985ZM18.191 11.4569C18.3774 11.4569 18.5406 11.387 18.6804 11.2472C18.8202 11.1074 18.8901 10.9442 18.8901 10.7578C18.8901 10.5714 18.8202 10.4082 18.6804 10.2684C18.5406 10.1286 18.3774 10.0587 18.191 10.0587C18.0046 10.0587 17.8414 10.1286 17.7016 10.2684C17.5618 10.4082 17.4919 10.5714 17.4919 10.7578C17.4919 10.9442 17.5618 11.1074 17.7016 11.2472C17.8414 11.387 18.0046 11.4569 18.191 11.4569ZM14.196 14.9925V13.794H22.186V14.9925H14.196ZM14.196 18.3883V17.1898H22.186V18.1685C22.1461 18.1952 22.1028 18.2285 22.0562 18.2684C22.0096 18.3084 21.9663 18.3483 21.9263 18.3883H14.196ZM14.196 21.784V20.5855H19.7291L18.8901 21.4245C18.8236 21.4911 18.767 21.551 18.7203 21.6042C18.6737 21.6575 18.6238 21.7174 18.5705 21.784H14.196Z" fill="black"/>
</svg>
