<svg width="34" height="34" viewBox="0 0 34 34" fill="none" xmlns="http://www.w3.org/2000/svg">
<rect x="0.5" y="0.5" width="33" height="33" rx="9.5" fill="white" stroke="#A0A0A0"/>
<path d="M15.8615 18.7692V20.2974C15.8615 20.6137 15.9725 20.8825 16.1943 21.1038C16.4162 21.3252 16.6856 21.4359 17.0025 21.4359C17.3195 21.4359 17.588 21.3252 17.8082 21.1038C18.0284 20.8825 18.1385 20.6137 18.1385 20.2974V18.7692H19.6667C19.9829 18.7692 20.2517 18.6583 20.4731 18.4364C20.6944 18.2146 20.8051 17.9452 20.8051 17.6282C20.8051 17.3113 20.6944 17.0427 20.4731 16.8226C20.2517 16.6024 19.9829 16.4923 19.6667 16.4923H18.1385V14.9641C18.1385 14.6478 18.0275 14.379 17.8057 14.1577C17.5838 13.9363 17.3144 13.8256 16.9975 13.8256C16.6805 13.8256 16.412 13.9363 16.1918 14.1577C15.9716 14.379 15.8615 14.6478 15.8615 14.9641V16.4923H14.3333C14.0171 16.4923 13.7483 16.6032 13.5269 16.8251C13.3056 17.0469 13.1949 17.3163 13.1949 17.6333C13.1949 17.9502 13.3056 18.2188 13.5269 18.4389C13.7483 18.6591 14.0171 18.7692 14.3333 18.7692H15.8615ZM10.5385 25.6308C10.1207 25.6308 9.75985 25.4788 9.45592 25.1748C9.15197 24.8709 9 24.51 9 24.0923V14.4C9 14.1518 9.05283 13.9203 9.15848 13.7056C9.26412 13.4909 9.41779 13.3128 9.6195 13.1713L16.081 8.30973C16.3439 8.10324 16.6483 8 16.9941 8C17.3399 8 17.6482 8.10324 17.919 8.30973L24.3805 13.1713C24.5822 13.3128 24.7359 13.4909 24.8415 13.7056C24.9472 13.9203 25 14.1518 25 14.4V24.0923C25 24.51 24.848 24.8709 24.5441 25.1748C24.2401 25.4788 23.8793 25.6308 23.4615 25.6308H10.5385ZM10.5385 24.4205H23.4615C23.5572 24.4205 23.6359 24.3897 23.6974 24.3282C23.759 24.2666 23.7898 24.188 23.7898 24.0923V14.3241C23.7898 14.2694 23.7778 14.2181 23.7539 14.1702C23.7299 14.1224 23.6974 14.0848 23.6564 14.0574L17.1949 9.3251C17.1402 9.27724 17.0752 9.25331 17 9.25331C16.9248 9.25331 16.8598 9.27724 16.8051 9.3251L10.3436 14.0574C10.3026 14.0848 10.2701 14.1224 10.2461 14.1702C10.2222 14.2181 10.2102 14.2694 10.2102 14.3241V24.0923C10.2102 24.188 10.241 24.2666 10.3026 24.3282C10.3641 24.3897 10.4428 24.4205 10.5385 24.4205Z" fill="black"/>
</svg>
