<svg width="34" height="34" viewBox="0 0 34 34" fill="none" xmlns="http://www.w3.org/2000/svg">
<rect x="0.5" y="0.5" width="33" height="33" rx="9.5" fill="white" stroke="#A0A0A0"/>
<path d="M14.0496 28.4933C13.8672 28.4933 13.7156 28.432 13.5947 28.3093C13.4738 28.1867 13.4133 28.0347 13.4133 27.8533V23.5867H12.1333C11.792 23.5867 11.4933 23.4587 11.2373 23.2027C10.9813 22.9467 10.8533 22.648 10.8533 22.3067V15.48H10.64C10.4587 15.48 10.3067 15.4183 10.184 15.2949C10.0613 15.1715 10 15.0187 10 14.8363C10 14.6539 10.0613 14.5022 10.184 14.3813C10.3067 14.2604 10.4587 14.2 10.64 14.2H13.4133V12.28H12.7733C12.592 12.28 12.44 12.2183 12.3173 12.0949C12.1947 11.9715 12.1333 11.8187 12.1333 11.6363C12.1333 11.4539 12.1947 11.3022 12.3173 11.1813C12.44 11.0604 12.592 11 12.7733 11H15.3333C15.5147 11 15.6667 11.0617 15.7893 11.1851C15.912 11.3085 15.9733 11.4613 15.9733 11.6437C15.9733 11.8261 15.912 11.9778 15.7893 12.0987C15.6667 12.2196 15.5147 12.28 15.3333 12.28H14.6933V14.2H17.4667C17.648 14.2 17.8 14.2617 17.9227 14.3851C18.0453 14.5085 18.1067 14.6613 18.1067 14.8437C18.1067 15.0261 18.0453 15.1778 17.9227 15.2987C17.8 15.4196 17.648 15.48 17.4667 15.48H17.2533V22.3067C17.2533 22.648 17.1253 22.9467 16.8693 23.2027C16.6133 23.4587 16.3147 23.5867 15.9733 23.5867H14.6933V27.8533C14.6933 28.0347 14.6316 28.1867 14.5083 28.3093C14.3849 28.432 14.232 28.4933 14.0496 28.4933ZM12.1333 22.3067H15.9733V20.6H14.2667C14.1529 20.6 14.0533 20.5573 13.968 20.472C13.8827 20.3867 13.84 20.2871 13.84 20.1733C13.84 20.0596 13.8827 19.96 13.968 19.8747C14.0533 19.7893 14.1529 19.7467 14.2667 19.7467H15.9733V18.04H14.2667C14.1529 18.04 14.0533 17.9973 13.968 17.912C13.8827 17.8267 13.84 17.7271 13.84 17.6133C13.84 17.4996 13.8827 17.4 13.968 17.3147C14.0533 17.2293 14.1529 17.1867 14.2667 17.1867H15.9733V15.48H12.1333V22.3067ZM20.88 28.0667C20.5387 28.0667 20.24 27.9387 19.984 27.6827C19.728 27.4267 19.6 27.128 19.6 26.7867V21.112C19.6 20.6569 19.6569 20.312 19.7707 20.0773C19.8844 19.8427 20.0338 19.6258 20.2187 19.4267C20.4889 19.1422 20.6667 18.9218 20.752 18.7653C20.8373 18.6089 20.88 18.4382 20.88 18.2533V17.6133H20.6667C20.4853 17.6133 20.3333 17.5516 20.2107 17.4283C20.088 17.3049 20.0267 17.152 20.0267 16.9696C20.0267 16.7872 20.0907 16.6356 20.2187 16.5147C20.3467 16.3938 20.496 16.3333 20.6667 16.3333H24.9333C25.1147 16.3333 25.2667 16.395 25.3893 16.5184C25.512 16.6418 25.5733 16.7947 25.5733 16.9771C25.5733 17.1595 25.512 17.3111 25.3893 17.432C25.2667 17.5529 25.1147 17.6133 24.9333 17.6133H24.72V18.2533C24.72 18.424 24.7733 18.6018 24.88 18.7867C24.9867 18.9716 25.1751 19.2062 25.4453 19.4907C25.6302 19.6898 25.7689 19.896 25.8613 20.1093C25.9538 20.3227 26 20.6569 26 21.112V26.7867C26 27.128 25.872 27.4267 25.616 27.6827C25.36 27.9387 25.0613 28.0667 24.72 28.0667H20.88ZM20.88 21.6667H24.72V21.112C24.72 20.856 24.6489 20.6284 24.5067 20.4293C24.3644 20.2302 24.208 20.024 24.0373 19.8107C23.824 19.5404 23.6711 19.2916 23.5787 19.064C23.4862 18.8364 23.44 18.5662 23.44 18.2533V17.6133H22.16V18.2533C22.16 18.552 22.1173 18.8151 22.032 19.0427C21.9467 19.2702 21.7973 19.5191 21.584 19.7893C21.4133 20.0027 21.2533 20.2124 21.104 20.4187C20.9547 20.6249 20.88 20.856 20.88 21.112V21.6667ZM20.88 24.2267H24.72V22.52H20.88V24.2267ZM20.88 26.7867H24.72V25.08H20.88V26.7867Z" fill="black"/>
</svg>
