<svg width="36" height="34" viewBox="0 0 36 34" fill="none" xmlns="http://www.w3.org/2000/svg">
<path d="M7 20.9169H20.8423V19.3853H7V20.9169ZM7 14.7142H29V13.1826H7V14.7142ZM7 8.51149H29V6.97997H7V8.51149ZM0 34V2.75672C0 1.99162 0.269383 1.34088 0.80815 0.804511C1.34695 0.268171 2.00063 0 2.7692 0H33.2308C33.9994 0 34.653 0.268171 35.1918 0.804511C35.7306 1.34088 36 1.99162 36 2.75672V25.1171C36 25.8822 35.7306 26.533 35.1918 27.0694C34.653 27.6057 33.9994 27.8739 33.2308 27.8739H6.15385L0 34ZM5.46925 26.3423H33.2308C33.5385 26.3423 33.8205 26.2147 34.077 25.9595C34.3334 25.7042 34.4616 25.4234 34.4616 25.1171V2.75672C34.4616 2.45044 34.3334 2.16967 34.077 1.91439C33.8205 1.65914 33.5385 1.53152 33.2308 1.53152H2.7692C2.46153 1.53152 2.17948 1.65914 1.92305 1.91439C1.66665 2.16967 1.53845 2.45044 1.53845 2.75672V30.4009L5.46925 26.3423Z" fill="black"/>
</svg>
