<svg width="60" height="60" viewBox="0 0 60 60" fill="none" xmlns="http://www.w3.org/2000/svg">
<circle cx="30" cy="30" r="30" fill="#E1ECF7"/>
<path d="M15.9006 28C15.8665 27.5739 15.7067 27.2415 15.4212 27.0028C15.1399 26.7642 14.7116 26.6449 14.1364 26.6449C13.7699 26.6449 13.4695 26.6896 13.2351 26.7791C13.005 26.8643 12.8345 26.9815 12.7237 27.1307C12.6129 27.2798 12.5554 27.4503 12.5511 27.642C12.5426 27.7997 12.5703 27.9425 12.6342 28.0703C12.7024 28.1939 12.8089 28.3068 12.9538 28.4091C13.0987 28.5071 13.2841 28.5966 13.5099 28.6776C13.7358 28.7585 14.0043 28.831 14.3153 28.8949L15.3892 29.125C16.1136 29.2784 16.7337 29.4808 17.2493 29.7322C17.7649 29.9837 18.1868 30.2798 18.5149 30.6207C18.843 30.9574 19.0838 31.3366 19.2372 31.7585C19.3949 32.1804 19.4759 32.6406 19.4801 33.1392C19.4759 34 19.2607 34.7287 18.8345 35.3253C18.4084 35.9219 17.799 36.3757 17.0064 36.6868C16.218 36.9979 15.2699 37.1534 14.1619 37.1534C13.0241 37.1534 12.0313 36.9851 11.1832 36.6484C10.3395 36.3118 9.68324 35.794 9.21449 35.0952C8.75 34.392 8.51563 33.4929 8.51136 32.3977H11.8864C11.9077 32.7983 12.0078 33.1349 12.1868 33.4077C12.3658 33.6804 12.6172 33.8871 12.9411 34.0277C13.2692 34.1683 13.6591 34.2386 14.1108 34.2386C14.4901 34.2386 14.8075 34.1918 15.0632 34.098C15.3189 34.0043 15.5128 33.8743 15.6449 33.7081C15.777 33.5419 15.8452 33.3523 15.8494 33.1392C15.8452 32.9389 15.7791 32.7642 15.6513 32.6151C15.5277 32.4616 15.3232 32.3253 15.0376 32.206C14.7521 32.0824 14.3665 31.9673 13.8807 31.8608L12.5767 31.5795C11.4176 31.3281 10.5036 30.9084 9.83452 30.3203C9.16974 29.728 8.83949 28.9205 8.84375 27.8977C8.83949 27.0668 9.06108 26.3402 9.50852 25.718C9.96023 25.0916 10.5845 24.6037 11.3814 24.2543C12.1825 23.9048 13.1009 23.7301 14.1364 23.7301C15.1932 23.7301 16.1072 23.907 16.8786 24.2607C17.6499 24.6143 18.2443 25.1129 18.6619 25.7564C19.0838 26.3956 19.2969 27.1435 19.3011 28H15.9006ZM20.832 37V23.9091H24.386V29.2017H24.565L28.5025 23.9091H32.6445L28.2212 29.7386L32.7468 37H28.5025L25.5621 32.0909L24.386 33.625V37H20.832ZM37.2532 23.9091V37H33.6992V23.9091H37.2532ZM50.2642 23.9091V37H47.2983L42.5682 30.1222H42.4915V37H38.9375V23.9091H41.9545L46.608 30.7614H46.7102V23.9091H50.2642Z" fill="#D74335"/>
</svg>
